<svg xmlns="http://www.w3.org/2000/svg" xmlns:xlink="http://www.w3.org/1999/xlink" width="420" zoomAndPan="magnify" viewBox="0 0 315 119.999999" height="160" preserveAspectRatio="xMidYMid meet" version="1.0"><defs><g/></defs><g fill="#000000" fill-opacity="1"><g transform="translate(2.578127, 79.300005)"><g><path d="M 24.953125 -3.703125 C 25.648438 -1.878906 26.660156 -0.9375 27.984375 -0.875 L 27.984375 0 C 26.804688 -0.0820312 25.238281 -0.125 23.28125 -0.125 C 20.75 -0.125 18.867188 -0.0820312 17.640625 0 L 17.640625 -0.875 C 18.753906 -0.9375 19.550781 -1.078125 20.03125 -1.296875 C 20.519531 -1.515625 20.765625 -1.921875 20.765625 -2.515625 C 20.765625 -3.003906 20.585938 -3.691406 20.234375 -4.578125 L 17.5625 -11.796875 L 6.90625 -11.796875 L 5.109375 -7.125 C 4.515625 -5.539062 4.21875 -4.335938 4.21875 -3.515625 C 4.21875 -2.609375 4.53125 -1.945312 5.15625 -1.53125 C 5.789062 -1.125 6.753906 -0.90625 8.046875 -0.875 L 8.046875 0 C 6.378906 -0.0820312 4.691406 -0.125 2.984375 -0.125 C 1.671875 -0.125 0.570312 -0.0820312 -0.3125 0 L -0.3125 -0.875 C 1.15625 -1.226562 2.316406 -2.503906 3.171875 -4.703125 L 13.515625 -31.375 L 14.21875 -31.375 Z M 17.203125 -12.671875 L 12.28125 -25.828125 L 7.265625 -12.671875 Z M 17.203125 -12.671875 "/></g></g></g><g fill="#000000" fill-opacity="1"><g transform="translate(30.293187, 79.300005)"><g><path d="M 7.171875 0.3125 C 5.328125 0.3125 3.957031 -0.148438 3.0625 -1.078125 C 2.164062 -2.003906 1.71875 -3.285156 1.71875 -4.921875 C 1.71875 -6.242188 2.078125 -7.328125 2.796875 -8.171875 C 3.515625 -9.023438 4.363281 -9.703125 5.34375 -10.203125 C 6.320312 -10.703125 7.617188 -11.234375 9.234375 -11.796875 C 10.878906 -12.347656 12.097656 -12.859375 12.890625 -13.328125 C 13.679688 -13.796875 14.078125 -14.425781 14.078125 -15.21875 L 14.078125 -17.953125 C 14.078125 -19.648438 13.71875 -20.8125 13 -21.4375 C 12.28125 -22.070312 11.273438 -22.390625 9.984375 -22.390625 C 7.929688 -22.390625 6.476562 -21.863281 5.625 -20.8125 C 6.21875 -20.664062 6.710938 -20.359375 7.109375 -19.890625 C 7.503906 -19.421875 7.703125 -18.832031 7.703125 -18.125 C 7.703125 -17.394531 7.46875 -16.816406 7 -16.390625 C 6.53125 -15.960938 5.925781 -15.75 5.1875 -15.75 C 4.363281 -15.75 3.75 -16.003906 3.34375 -16.515625 C 2.9375 -17.035156 2.734375 -17.660156 2.734375 -18.390625 C 2.734375 -19.097656 2.898438 -19.6875 3.234375 -20.15625 C 3.566406 -20.625 4.070312 -21.09375 4.75 -21.5625 C 5.457031 -22.0625 6.351562 -22.472656 7.4375 -22.796875 C 8.519531 -23.117188 9.707031 -23.28125 11 -23.28125 C 13.289062 -23.28125 15.019531 -22.734375 16.1875 -21.640625 C 16.925781 -20.972656 17.421875 -20.160156 17.671875 -19.203125 C 17.921875 -18.253906 18.046875 -17 18.046875 -15.4375 L 18.046875 -3.21875 C 18.046875 -2.476562 18.144531 -1.945312 18.34375 -1.625 C 18.550781 -1.300781 18.90625 -1.140625 19.40625 -1.140625 C 19.757812 -1.140625 20.085938 -1.21875 20.390625 -1.375 C 20.703125 -1.539062 21.035156 -1.769531 21.390625 -2.0625 L 21.875 -1.3125 C 21.101562 -0.726562 20.445312 -0.3125 19.90625 -0.0625 C 19.363281 0.1875 18.679688 0.3125 17.859375 0.3125 C 16.453125 0.3125 15.46875 -0.0351562 14.90625 -0.734375 C 14.351562 -1.441406 14.078125 -2.398438 14.078125 -3.609375 C 13.203125 -2.140625 12.191406 -1.117188 11.046875 -0.546875 C 9.898438 0.0234375 8.609375 0.3125 7.171875 0.3125 Z M 9.109375 -1.453125 C 11.046875 -1.453125 12.703125 -2.566406 14.078125 -4.796875 L 14.078125 -13.421875 C 13.816406 -13.003906 13.453125 -12.664062 12.984375 -12.40625 C 12.515625 -12.144531 11.796875 -11.796875 10.828125 -11.359375 C 9.710938 -10.878906 8.804688 -10.425781 8.109375 -10 C 7.421875 -9.582031 6.828125 -9.003906 6.328125 -8.265625 C 5.835938 -7.535156 5.59375 -6.597656 5.59375 -5.453125 C 5.59375 -4.128906 5.914062 -3.128906 6.5625 -2.453125 C 7.207031 -1.785156 8.054688 -1.453125 9.109375 -1.453125 Z M 9.109375 -1.453125 "/></g></g></g><g fill="#000000" fill-opacity="1"><g transform="translate(52.201285, 79.300005)"><g><path d="M 14.953125 -23.28125 C 16.128906 -23.28125 17.09375 -22.941406 17.84375 -22.265625 C 18.59375 -21.585938 18.96875 -20.765625 18.96875 -19.796875 C 18.96875 -19.035156 18.738281 -18.382812 18.28125 -17.84375 C 17.820312 -17.300781 17.210938 -17.03125 16.453125 -17.03125 C 15.804688 -17.03125 15.253906 -17.234375 14.796875 -17.640625 C 14.347656 -18.054688 14.125 -18.613281 14.125 -19.3125 C 14.125 -20.28125 14.625 -21.070312 15.625 -21.6875 C 15.414062 -21.976562 15.109375 -22.125 14.703125 -22.125 C 13.554688 -22.125 12.507812 -21.675781 11.5625 -20.78125 C 10.625 -19.894531 9.890625 -18.804688 9.359375 -17.515625 C 8.835938 -16.222656 8.578125 -15.003906 8.578125 -13.859375 L 8.578125 -4.53125 C 8.578125 -3.1875 8.960938 -2.25 9.734375 -1.71875 C 10.515625 -1.1875 11.6875 -0.921875 13.25 -0.921875 L 13.25 0 L 12.1875 -0.046875 C 9.195312 -0.128906 7.289062 -0.171875 6.46875 -0.171875 C 5.707031 -0.171875 3.976562 -0.113281 1.28125 0 L 1.28125 -0.921875 C 2.507812 -0.921875 3.375 -1.144531 3.875 -1.59375 C 4.375 -2.050781 4.625 -2.882812 4.625 -4.09375 L 4.625 -17.859375 C 4.625 -19.210938 4.375 -20.195312 3.875 -20.8125 C 3.375 -21.425781 2.507812 -21.734375 1.28125 -21.734375 L 1.28125 -22.65625 C 2.21875 -22.570312 3.125 -22.53125 4 -22.53125 C 5.851562 -22.53125 7.378906 -22.734375 8.578125 -23.140625 L 8.578125 -17.640625 C 9.109375 -19.109375 9.953125 -20.414062 11.109375 -21.5625 C 12.265625 -22.707031 13.546875 -23.28125 14.953125 -23.28125 Z M 14.953125 -23.28125 "/></g></g></g><g fill="#000000" fill-opacity="1"><g transform="translate(71.777799, 79.300005)"><g><path d="M 12.0625 -23.28125 C 15.050781 -23.28125 17.460938 -22.289062 19.296875 -20.3125 C 21.128906 -18.332031 22.046875 -15.332031 22.046875 -11.3125 C 22.046875 -7.289062 21.128906 -4.296875 19.296875 -2.328125 C 17.460938 -0.367188 15.050781 0.609375 12.0625 0.609375 C 9.0625 0.609375 6.644531 -0.367188 4.8125 -2.328125 C 2.976562 -4.296875 2.0625 -7.289062 2.0625 -11.3125 C 2.0625 -15.332031 2.976562 -18.332031 4.8125 -20.3125 C 6.644531 -22.289062 9.0625 -23.28125 12.0625 -23.28125 Z M 12.0625 -22.390625 C 10.300781 -22.390625 8.90625 -21.488281 7.875 -19.6875 C 6.851562 -17.882812 6.34375 -15.09375 6.34375 -11.3125 C 6.34375 -7.519531 6.851562 -4.726562 7.875 -2.9375 C 8.90625 -1.15625 10.300781 -0.265625 12.0625 -0.265625 C 13.820312 -0.265625 15.210938 -1.15625 16.234375 -2.9375 C 17.265625 -4.726562 17.78125 -7.519531 17.78125 -11.3125 C 17.78125 -15.09375 17.265625 -17.882812 16.234375 -19.6875 C 15.210938 -21.488281 13.820312 -22.390625 12.0625 -22.390625 Z M 12.0625 -22.390625 "/></g></g></g><g fill="#000000" fill-opacity="1"><g transform="translate(95.885498, 79.300005)"><g><path d="M 16.0625 -23.28125 C 18.113281 -23.28125 19.664062 -22.722656 20.71875 -21.609375 C 21.28125 -21.015625 21.675781 -20.273438 21.90625 -19.390625 C 22.144531 -18.515625 22.265625 -17.332031 22.265625 -15.84375 L 22.265625 -4.09375 C 22.265625 -2.882812 22.515625 -2.050781 23.015625 -1.59375 C 23.515625 -1.144531 24.378906 -0.921875 25.609375 -0.921875 L 25.609375 0 C 22.910156 -0.113281 21.148438 -0.171875 20.328125 -0.171875 C 19.503906 -0.171875 17.863281 -0.113281 15.40625 0 L 15.40625 -0.921875 C 16.488281 -0.921875 17.238281 -1.144531 17.65625 -1.59375 C 18.082031 -2.050781 18.296875 -2.882812 18.296875 -4.09375 L 18.296875 -16.8125 C 18.296875 -18.445312 18.0625 -19.695312 17.59375 -20.5625 C 17.125 -21.4375 16.171875 -21.875 14.734375 -21.875 C 13.535156 -21.875 12.46875 -21.519531 11.53125 -20.8125 C 10.59375 -20.101562 9.863281 -19.140625 9.34375 -17.921875 C 8.832031 -16.710938 8.578125 -15.359375 8.578125 -13.859375 L 8.578125 -4.09375 C 8.578125 -2.882812 8.789062 -2.050781 9.21875 -1.59375 C 9.644531 -1.144531 10.398438 -0.921875 11.484375 -0.921875 L 11.484375 0 C 9.015625 -0.113281 7.375 -0.171875 6.5625 -0.171875 C 5.738281 -0.171875 3.976562 -0.113281 1.28125 0 L 1.28125 -0.921875 C 2.507812 -0.921875 3.375 -1.144531 3.875 -1.59375 C 4.375 -2.050781 4.625 -2.882812 4.625 -4.09375 L 4.625 -17.859375 C 4.625 -19.210938 4.375 -20.195312 3.875 -20.8125 C 3.375 -21.425781 2.507812 -21.734375 1.28125 -21.734375 L 1.28125 -22.65625 C 2.21875 -22.570312 3.125 -22.53125 4 -22.53125 C 5.851562 -22.53125 7.378906 -22.734375 8.578125 -23.140625 L 8.578125 -17.953125 C 9.316406 -19.828125 10.335938 -21.179688 11.640625 -22.015625 C 12.941406 -22.859375 14.414062 -23.28125 16.0625 -23.28125 Z M 16.0625 -23.28125 "/></g></g></g><g fill="#000000" fill-opacity="1"><g transform="translate(122.148817, 79.300005)"><g/></g></g><g fill="#000000" fill-opacity="1"><g transform="translate(133.102861, 79.300005)"><g><path d="M 36.609375 -31.015625 C 37.929688 -31.015625 39.03125 -31.0625 39.90625 -31.15625 L 39.90625 -30.265625 C 38.257812 -29.890625 37.101562 -28.613281 36.4375 -26.4375 L 28.109375 0.21875 L 27.40625 0.21875 L 19.75 -22.4375 L 12.765625 0.21875 L 12.0625 0.21875 L 2.734375 -27.453125 C 2.109375 -29.273438 1.09375 -30.210938 -0.3125 -30.265625 L -0.3125 -31.15625 C 0.894531 -31.0625 2.46875 -31.015625 4.40625 -31.015625 C 6.507812 -31.015625 8.09375 -31.0625 9.15625 -31.15625 L 9.15625 -30.265625 C 8.363281 -30.210938 7.804688 -30.066406 7.484375 -29.828125 C 7.160156 -29.597656 7 -29.234375 7 -28.734375 C 7 -28.265625 7.160156 -27.546875 7.484375 -26.578125 L 13.90625 -6.953125 L 19.265625 -23.984375 L 18.078125 -27.453125 C 17.492188 -29.273438 16.628906 -30.210938 15.484375 -30.265625 L 15.484375 -31.15625 C 16.546875 -31.0625 17.96875 -31.015625 19.75 -31.015625 C 22.28125 -31.015625 24.160156 -31.0625 25.390625 -31.15625 L 25.390625 -30.265625 C 24.273438 -30.210938 23.492188 -30.085938 23.046875 -29.890625 C 22.609375 -29.703125 22.390625 -29.300781 22.390625 -28.6875 C 22.390625 -28.15625 22.539062 -27.453125 22.84375 -26.578125 L 29.171875 -7 L 34.578125 -24.03125 C 35.046875 -25.46875 35.28125 -26.65625 35.28125 -27.59375 C 35.28125 -28.5625 34.988281 -29.242188 34.40625 -29.640625 C 33.820312 -30.035156 32.867188 -30.242188 31.546875 -30.265625 L 31.546875 -31.15625 C 33.222656 -31.0625 34.910156 -31.015625 36.609375 -31.015625 Z M 36.609375 -31.015625 "/></g></g></g><g fill="#000000" fill-opacity="1"><g transform="translate(172.915767, 79.300005)"><g><path d="M 6.28125 -33.65625 C 7.039062 -33.65625 7.695312 -33.375 8.25 -32.8125 C 8.8125 -32.257812 9.09375 -31.601562 9.09375 -30.84375 C 9.09375 -30.082031 8.8125 -29.421875 8.25 -28.859375 C 7.695312 -28.304688 7.039062 -28.03125 6.28125 -28.03125 C 5.519531 -28.03125 4.859375 -28.304688 4.296875 -28.859375 C 3.742188 -29.421875 3.46875 -30.082031 3.46875 -30.84375 C 3.46875 -31.601562 3.742188 -32.257812 4.296875 -32.8125 C 4.859375 -33.375 5.519531 -33.65625 6.28125 -33.65625 Z M 8.578125 -4.09375 C 8.578125 -2.882812 8.828125 -2.050781 9.328125 -1.59375 C 9.828125 -1.144531 10.691406 -0.921875 11.921875 -0.921875 L 11.921875 0 C 9.222656 -0.113281 7.445312 -0.171875 6.59375 -0.171875 C 5.75 -0.171875 3.976562 -0.113281 1.28125 0 L 1.28125 -0.921875 C 2.507812 -0.921875 3.375 -1.144531 3.875 -1.59375 C 4.375 -2.050781 4.625 -2.882812 4.625 -4.09375 L 4.625 -17.859375 C 4.625 -19.210938 4.375 -20.195312 3.875 -20.8125 C 3.375 -21.425781 2.507812 -21.734375 1.28125 -21.734375 L 1.28125 -22.65625 C 2.21875 -22.570312 3.125 -22.53125 4 -22.53125 C 5.851562 -22.53125 7.378906 -22.734375 8.578125 -23.140625 Z M 8.578125 -4.09375 "/></g></g></g><g fill="#000000" fill-opacity="1"><g transform="translate(185.805465, 79.300005)"><g><path d="M 8.265625 -4.09375 C 8.265625 -2.882812 8.515625 -2.050781 9.015625 -1.59375 C 9.515625 -1.144531 10.378906 -0.921875 11.609375 -0.921875 L 11.609375 0 C 8.910156 -0.113281 7.140625 -0.171875 6.296875 -0.171875 C 5.441406 -0.171875 3.664062 -0.113281 0.96875 0 L 0.96875 -0.921875 C 2.195312 -0.921875 3.0625 -1.144531 3.5625 -1.59375 C 4.0625 -2.050781 4.3125 -2.882812 4.3125 -4.09375 L 4.3125 -29.21875 C 4.3125 -30.5625 4.0625 -31.539062 3.5625 -32.15625 C 3.0625 -32.78125 2.195312 -33.09375 0.96875 -33.09375 L 0.96875 -34.015625 C 1.875 -33.921875 2.785156 -33.875 3.703125 -33.875 C 5.546875 -33.875 7.066406 -34.082031 8.265625 -34.5 Z M 8.265625 -4.09375 "/></g></g></g><g fill="#000000" fill-opacity="1"><g transform="translate(198.387213, 79.300005)"><g><path d="M 8.265625 -4.09375 C 8.265625 -2.882812 8.515625 -2.050781 9.015625 -1.59375 C 9.515625 -1.144531 10.378906 -0.921875 11.609375 -0.921875 L 11.609375 0 C 8.910156 -0.113281 7.140625 -0.171875 6.296875 -0.171875 C 5.441406 -0.171875 3.664062 -0.113281 0.96875 0 L 0.96875 -0.921875 C 2.195312 -0.921875 3.0625 -1.144531 3.5625 -1.59375 C 4.0625 -2.050781 4.3125 -2.882812 4.3125 -4.09375 L 4.3125 -29.21875 C 4.3125 -30.5625 4.0625 -31.539062 3.5625 -32.15625 C 3.0625 -32.78125 2.195312 -33.09375 0.96875 -33.09375 L 0.96875 -34.015625 C 1.875 -33.921875 2.785156 -33.875 3.703125 -33.875 C 5.546875 -33.875 7.066406 -34.082031 8.265625 -34.5 Z M 8.265625 -4.09375 "/></g></g></g><g fill="#000000" fill-opacity="1"><g transform="translate(210.968984, 79.300005)"><g><path d="M 6.28125 -33.65625 C 7.039062 -33.65625 7.695312 -33.375 8.25 -32.8125 C 8.8125 -32.257812 9.09375 -31.601562 9.09375 -30.84375 C 9.09375 -30.082031 8.8125 -29.421875 8.25 -28.859375 C 7.695312 -28.304688 7.039062 -28.03125 6.28125 -28.03125 C 5.519531 -28.03125 4.859375 -28.304688 4.296875 -28.859375 C 3.742188 -29.421875 3.46875 -30.082031 3.46875 -30.84375 C 3.46875 -31.601562 3.742188 -32.257812 4.296875 -32.8125 C 4.859375 -33.375 5.519531 -33.65625 6.28125 -33.65625 Z M 8.578125 -4.09375 C 8.578125 -2.882812 8.828125 -2.050781 9.328125 -1.59375 C 9.828125 -1.144531 10.691406 -0.921875 11.921875 -0.921875 L 11.921875 0 C 9.222656 -0.113281 7.445312 -0.171875 6.59375 -0.171875 C 5.75 -0.171875 3.976562 -0.113281 1.28125 0 L 1.28125 -0.921875 C 2.507812 -0.921875 3.375 -1.144531 3.875 -1.59375 C 4.375 -2.050781 4.625 -2.882812 4.625 -4.09375 L 4.625 -17.859375 C 4.625 -19.210938 4.375 -20.195312 3.875 -20.8125 C 3.375 -21.425781 2.507812 -21.734375 1.28125 -21.734375 L 1.28125 -22.65625 C 2.21875 -22.570312 3.125 -22.53125 4 -22.53125 C 5.851562 -22.53125 7.378906 -22.734375 8.578125 -23.140625 Z M 8.578125 -4.09375 "/></g></g></g><g fill="#000000" fill-opacity="1"><g transform="translate(223.858693, 79.300005)"><g><path d="M 7.171875 0.3125 C 5.328125 0.3125 3.957031 -0.148438 3.0625 -1.078125 C 2.164062 -2.003906 1.71875 -3.285156 1.71875 -4.921875 C 1.71875 -6.242188 2.078125 -7.328125 2.796875 -8.171875 C 3.515625 -9.023438 4.363281 -9.703125 5.34375 -10.203125 C 6.320312 -10.703125 7.617188 -11.234375 9.234375 -11.796875 C 10.878906 -12.347656 12.097656 -12.859375 12.890625 -13.328125 C 13.679688 -13.796875 14.078125 -14.425781 14.078125 -15.21875 L 14.078125 -17.953125 C 14.078125 -19.648438 13.71875 -20.8125 13 -21.4375 C 12.28125 -22.070312 11.273438 -22.390625 9.984375 -22.390625 C 7.929688 -22.390625 6.476562 -21.863281 5.625 -20.8125 C 6.21875 -20.664062 6.710938 -20.359375 7.109375 -19.890625 C 7.503906 -19.421875 7.703125 -18.832031 7.703125 -18.125 C 7.703125 -17.394531 7.46875 -16.816406 7 -16.390625 C 6.53125 -15.960938 5.925781 -15.75 5.1875 -15.75 C 4.363281 -15.75 3.75 -16.003906 3.34375 -16.515625 C 2.9375 -17.035156 2.734375 -17.660156 2.734375 -18.390625 C 2.734375 -19.097656 2.898438 -19.6875 3.234375 -20.15625 C 3.566406 -20.625 4.070312 -21.09375 4.75 -21.5625 C 5.457031 -22.0625 6.351562 -22.472656 7.4375 -22.796875 C 8.519531 -23.117188 9.707031 -23.28125 11 -23.28125 C 13.289062 -23.28125 15.019531 -22.734375 16.1875 -21.640625 C 16.925781 -20.972656 17.421875 -20.160156 17.671875 -19.203125 C 17.921875 -18.253906 18.046875 -17 18.046875 -15.4375 L 18.046875 -3.21875 C 18.046875 -2.476562 18.144531 -1.945312 18.34375 -1.625 C 18.550781 -1.300781 18.90625 -1.140625 19.40625 -1.140625 C 19.757812 -1.140625 20.085938 -1.21875 20.390625 -1.375 C 20.703125 -1.539062 21.035156 -1.769531 21.390625 -2.0625 L 21.875 -1.3125 C 21.101562 -0.726562 20.445312 -0.3125 19.90625 -0.0625 C 19.363281 0.1875 18.679688 0.3125 17.859375 0.3125 C 16.453125 0.3125 15.46875 -0.0351562 14.90625 -0.734375 C 14.351562 -1.441406 14.078125 -2.398438 14.078125 -3.609375 C 13.203125 -2.140625 12.191406 -1.117188 11.046875 -0.546875 C 9.898438 0.0234375 8.609375 0.3125 7.171875 0.3125 Z M 9.109375 -1.453125 C 11.046875 -1.453125 12.703125 -2.566406 14.078125 -4.796875 L 14.078125 -13.421875 C 13.816406 -13.003906 13.453125 -12.664062 12.984375 -12.40625 C 12.515625 -12.144531 11.796875 -11.796875 10.828125 -11.359375 C 9.710938 -10.878906 8.804688 -10.425781 8.109375 -10 C 7.421875 -9.582031 6.828125 -9.003906 6.328125 -8.265625 C 5.835938 -7.535156 5.59375 -6.597656 5.59375 -5.453125 C 5.59375 -4.128906 5.914062 -3.128906 6.5625 -2.453125 C 7.207031 -1.785156 8.054688 -1.453125 9.109375 -1.453125 Z M 9.109375 -1.453125 "/></g></g></g><g fill="#000000" fill-opacity="1"><g transform="translate(245.766803, 79.300005)"><g><path d="M 16.0625 -23.28125 C 18.113281 -23.28125 19.664062 -22.722656 20.71875 -21.609375 C 21.28125 -21.015625 21.675781 -20.273438 21.90625 -19.390625 C 22.144531 -18.515625 22.265625 -17.332031 22.265625 -15.84375 L 22.265625 -4.09375 C 22.265625 -2.882812 22.515625 -2.050781 23.015625 -1.59375 C 23.515625 -1.144531 24.378906 -0.921875 25.609375 -0.921875 L 25.609375 0 C 22.910156 -0.113281 21.148438 -0.171875 20.328125 -0.171875 C 19.503906 -0.171875 17.863281 -0.113281 15.40625 0 L 15.40625 -0.921875 C 16.488281 -0.921875 17.238281 -1.144531 17.65625 -1.59375 C 18.082031 -2.050781 18.296875 -2.882812 18.296875 -4.09375 L 18.296875 -16.8125 C 18.296875 -18.445312 18.0625 -19.695312 17.59375 -20.5625 C 17.125 -21.4375 16.171875 -21.875 14.734375 -21.875 C 13.535156 -21.875 12.46875 -21.519531 11.53125 -20.8125 C 10.59375 -20.101562 9.863281 -19.140625 9.34375 -17.921875 C 8.832031 -16.710938 8.578125 -15.359375 8.578125 -13.859375 L 8.578125 -4.09375 C 8.578125 -2.882812 8.789062 -2.050781 9.21875 -1.59375 C 9.644531 -1.144531 10.398438 -0.921875 11.484375 -0.921875 L 11.484375 0 C 9.015625 -0.113281 7.375 -0.171875 6.5625 -0.171875 C 5.738281 -0.171875 3.976562 -0.113281 1.28125 0 L 1.28125 -0.921875 C 2.507812 -0.921875 3.375 -1.144531 3.875 -1.59375 C 4.375 -2.050781 4.625 -2.882812 4.625 -4.09375 L 4.625 -17.859375 C 4.625 -19.210938 4.375 -20.195312 3.875 -20.8125 C 3.375 -21.425781 2.507812 -21.734375 1.28125 -21.734375 L 1.28125 -22.65625 C 2.21875 -22.570312 3.125 -22.53125 4 -22.53125 C 5.851562 -22.53125 7.378906 -22.734375 8.578125 -23.140625 L 8.578125 -17.953125 C 9.316406 -19.828125 10.335938 -21.179688 11.640625 -22.015625 C 12.941406 -22.859375 14.414062 -23.28125 16.0625 -23.28125 Z M 16.0625 -23.28125 "/></g></g></g><g fill="#000000" fill-opacity="1"><g transform="translate(272.030122, 79.300005)"><g><path d="M 9.15625 -23.28125 C 10.207031 -23.28125 11.144531 -23.117188 11.96875 -22.796875 C 12.789062 -22.472656 13.453125 -22.085938 13.953125 -21.640625 C 14.273438 -21.410156 14.535156 -21.296875 14.734375 -21.296875 C 15.265625 -21.296875 15.585938 -21.941406 15.703125 -23.234375 L 16.71875 -23.234375 C 16.601562 -21.796875 16.546875 -19.300781 16.546875 -15.75 L 15.53125 -15.75 C 15.207031 -17.6875 14.582031 -19.285156 13.65625 -20.546875 C 12.738281 -21.804688 11.367188 -22.4375 9.546875 -22.4375 C 8.492188 -22.4375 7.628906 -22.132812 6.953125 -21.53125 C 6.273438 -20.9375 5.9375 -20.109375 5.9375 -19.046875 C 5.9375 -18.023438 6.285156 -17.164062 6.984375 -16.46875 C 7.691406 -15.78125 8.828125 -14.953125 10.390625 -13.984375 C 10.648438 -13.835938 11.046875 -13.59375 11.578125 -13.25 C 12.921875 -12.363281 14.003906 -11.582031 14.828125 -10.90625 C 15.648438 -10.238281 16.316406 -9.460938 16.828125 -8.578125 C 17.335938 -7.703125 17.59375 -6.691406 17.59375 -5.546875 C 17.59375 -3.609375 16.867188 -2.097656 15.421875 -1.015625 C 13.972656 0.0664062 12.191406 0.609375 10.078125 0.609375 C 8.753906 0.609375 7.59375 0.40625 6.59375 0 C 5.945312 -0.320312 5.347656 -0.71875 4.796875 -1.1875 C 4.679688 -1.300781 4.550781 -1.359375 4.40625 -1.359375 C 4.195312 -1.359375 4.007812 -1.210938 3.84375 -0.921875 C 3.6875 -0.628906 3.5625 -0.21875 3.46875 0.3125 L 2.46875 0.3125 C 2.582031 -1.363281 2.640625 -4.296875 2.640625 -8.484375 L 3.65625 -8.484375 C 3.976562 -5.734375 4.5625 -3.675781 5.40625 -2.3125 C 6.257812 -0.945312 7.710938 -0.265625 9.765625 -0.265625 C 10.796875 -0.265625 11.707031 -0.597656 12.5 -1.265625 C 13.289062 -1.941406 13.6875 -3 13.6875 -4.4375 C 13.6875 -5.582031 13.296875 -6.550781 12.515625 -7.34375 C 11.742188 -8.132812 10.476562 -9.085938 8.71875 -10.203125 C 7.28125 -11.117188 6.171875 -11.867188 5.390625 -12.453125 C 4.609375 -13.035156 3.953125 -13.753906 3.421875 -14.609375 C 2.898438 -15.460938 2.640625 -16.457031 2.640625 -17.59375 C 2.640625 -19.445312 3.253906 -20.859375 4.484375 -21.828125 C 5.722656 -22.796875 7.28125 -23.28125 9.15625 -23.28125 Z M 9.15625 -23.28125 "/></g></g></g><g fill="#000000" fill-opacity="1"><g transform="translate(291.694619, 79.300005)"><g/></g></g><g fill="#000000" fill-opacity="1"><g transform="translate(302.648651, 79.300005)"><g><path d="M 5.765625 8.578125 L 4 8.578125 L 4 -37.75 L 5.765625 -37.75 Z M 5.765625 8.578125 "/></g></g></g></svg>